<svg xmlns="http://www.w3.org/2000/svg" xmlns:xlink="http://www.w3.org/1999/xlink" width="210.526" height="203.333" viewBox="0 0 210.526 203.333">
  <defs>
    <linearGradient id="linear-gradient" x1="-0.977" y1="-4.54" x2="3.44" y2="10.168" gradientUnits="objectBoundingBox">
      <stop offset="0" stop-color="#29abe2"/>
      <stop offset="1" stop-color="#00307c"/>
    </linearGradient>
    <linearGradient id="linear-gradient-2" x1="0.424" y1="0.228" x2="0.974" y2="3.188" xlink:href="#linear-gradient"/>
    <linearGradient id="linear-gradient-3" x1="0.313" y1="-0.309" x2="0.669" y2="1.471" xlink:href="#linear-gradient"/>
  </defs>
  <g id="Group_3062" data-name="Group 3062" transform="translate(-759 -345.867)">
    <g id="Group_3058" data-name="Group 3058" transform="translate(824.918 345.867)">
      <path id="Path_718" data-name="Path 718" d="M962.384,416.289a19.529,19.529,0,0,1-2.4.22c-.126,0-.262-.328-.514-.666l-1.317-.141a26.936,26.936,0,0,0,2.782-1.237,1.681,1.681,0,0,0,.316-2.866,2.985,2.985,0,0,1-.667-.818,1.151,1.151,0,0,1,.017-.9c.085-.152.5-.148.768-.16a3.1,3.1,0,0,1,.668.131c-.749-1.967-2.493-1.893-4.1-2.2,2.109-1.035,3.708-.3,5,2.219a2.216,2.216,0,0,0-.7-2.372c-1.021-.813-1.556-1.641-.97-2.931a2.006,2.006,0,0,0,.009-.671l-.613.678-.325-2.921-.213.029c-.047.286-.094.571-.128.78l-1.515-3.536-.26.127q-.113,1.628-.226,3.255l-.187-.028c-.378-1.3-.818-2.58-1.114-3.9a5.77,5.77,0,0,1,.761-3.978c-.2,2.111,1.12,3.468,2.088,5.012,1.663-4.952.55-9.722-.5-14.5V388.8a35.569,35.569,0,0,0-1.316-3.345c-.546-1.075-1.283-2.053-1.936-3.074l.308-.2,2.145,2.979a9.734,9.734,0,0,0-2.477-4.668,14.919,14.919,0,0,1-3.49-11.377l2.47,5.444a1.027,1.027,0,0,0,.195-.693c-.017-2.424-.1-4.849-.039-7.271a15.044,15.044,0,0,0-3.149-10.316,1.732,1.732,0,0,1-.341-.653,4.236,4.236,0,0,0-2.153-2.662,15,15,0,0,1-4.691-4.17,5.262,5.262,0,0,0-3.522-2.264c-2.538-.385-5.11-.753-7.608.262a2.4,2.4,0,0,1-2.433-.228,4.047,4.047,0,0,0-3.987-.324,26.732,26.732,0,0,0-8.737,5.665,1.458,1.458,0,0,1-.78.466c-1.571.072-2.413,1.135-3.138,2.295-1.035,1.658-2.039,3.339-2.954,5.064a20.425,20.425,0,0,0-1.588,3.727,4.29,4.29,0,0,0-.05,2.615,6.986,6.986,0,0,1-.265,5.4c-.4,1.049-.681,2.146-1.015,3.221l.284.146,2.444-3.08c-.037.453.035.789-.1,1-.77,1.224-1.555,2.443-2.4,3.62-2.148,3.008-3.48,6.2-2.52,10a27.819,27.819,0,0,1,.677,3.785c.193,1.763.267,3.54.392,5.313l.835-1.8a4.837,4.837,0,0,1-1.494,5.415c-.816.637-1.685,1.208-2.481,1.869a6.936,6.936,0,0,0-2.382,4.192c.86-2.145,3.192-1.3,4.594-2.336l-1.933,3.763-.444-1.726a5.671,5.671,0,0,0,.072,5.256l-.325.133-1.344-2.508a5.445,5.445,0,0,0,.481,3.611c.46.967,1,1.9,1.421,2.879a1.162,1.162,0,0,1-.149,1,13.959,13.959,0,0,1-6.376,3.924,10.978,10.978,0,0,0-3.846,2.385,5.907,5.907,0,0,1-3.826,1.846,9.712,9.712,0,0,0-5.217,2.008c.078.068.117.128.168.141a6.181,6.181,0,0,0,.627.138,32.245,32.245,0,0,1,11.413,3.947c2.939-.748,5.836-1.66,8.812-2.271,3.012-.618,10.257-.831,10.79-.9-.237-.543-.464-1.091-.673-1.651a11.01,11.01,0,0,1-.643-3.337c-.055-1.367.754-1.771,1.844-.969a13.888,13.888,0,0,1,2.362,2.159,39.928,39.928,0,0,0,6.2,4.892,53.711,53.711,0,0,0-1.577-5.815,10.508,10.508,0,0,1-.37-3.043,1.422,1.422,0,0,1,.686-1.068c.231-.113.84.188,1.055.473a34.171,34.171,0,0,1,2.079,3.107c.773,1.3,1.468,2.645,2.2,3.97a1.614,1.614,0,0,0,.094-1c-.228-1.408-.547-2.809-.667-4.226a5.4,5.4,0,0,0-1.285-3.533c-.517-.539-.327-.912.3-1.233.98-.5,1.928-1.071,2.9-1.6a1.672,1.672,0,0,1,.6-.186c.97-.107,1.941-.235,2.915-.269a5.641,5.641,0,0,1,1.306.25c1.139-.718,2.434-1.431,3.606-2.308a12.692,12.692,0,0,0,2.132-2.173A13.759,13.759,0,0,0,942.847,407l.181.046-.118,1.679.358.1c.468-1.376.936-2.753,1.419-4.173l.375.672.311.045c.586-1.5,1.17-3,1.888-4.843a13.546,13.546,0,0,1,.752,2.846,40.242,40.242,0,0,1-.274,4.272,6.132,6.132,0,0,0,2.946,6.015,24.839,24.839,0,0,0,2.668,1.353,9.4,9.4,0,0,1,2.568,1.245c1.951,1.92,4.572,1.86,7.639-.354C963.161,416.011,962.784,416.225,962.384,416.289Zm-20.023-13.307-1.126-.729v2.958l-.15.005-.923-3.195c-1.014,1.144-1.126,1.982-.585,3.018.593,1.134.54,1.681-.315,2.513-.086-.455-.162-.854-.289-1.52L938,407.965l-1.264-.289v-1.411l-.124-.027-.893,2.405-.217-.076c-.4-1.718-.8-3.437-1.231-5.31l-.837,1.22c-1.557-1.363-.512-3.145-.853-4.651l-.323-.224-1.075,1.41-.744-1.076-2.1,3.361c-.177-.789-.311-1.388-.444-1.986h-.271c-.082.6-.163,1.2-.277,2.035-1.462-1.7-2.9-3.209-3.368-5.34a1.873,1.873,0,0,1,.174-1.13,6.325,6.325,0,0,1,5.11-2.768c.624.042,1.264-.189,1.9-.179q3.916.061,7.83.214a2.179,2.179,0,0,1,1.125.459,1.9,1.9,0,0,1,.7.921c.656,2.445,1.257,4.9,1.876,7.36ZM930.38,392.451l2.276-2.53,2.5,2.53Zm22.159-.37A9.062,9.062,0,0,1,951,393.556c-.562.441-1.175.818-1.775,1.21.088-.449.176-.9.251-1.349.109-.658.527-1.375-.616-1.677-.281-.075-.367-.889-.649-1.42-.291,2.3-2.853,4.035-1.478,6.649l-1.885.735.3.112-.258,2.977-.19.025q-.159-.487-.318-.974l-.174,0-.206,2.1-.179.072a3.68,3.68,0,0,1-.471-1.065c-.129-1.415-.151-2.838-.277-4.253a6.858,6.858,0,0,0-.415-1.606c-.126-.364-.446-.677-.512-1.043a2.249,2.249,0,0,0-1.485-1.786,3.64,3.64,0,0,1-1.129-1.079c-.987-1.175-2.112-1.049-2.721.476l-1.149-1.475-.276.189v.956l-.319-.041a8.717,8.717,0,0,0,.18-1.384,1.617,1.617,0,0,0-.3-1.028c-.573-.58-.61-.977.152-1.381a3.914,3.914,0,0,0,1.035-.738,3.214,3.214,0,0,0,.425-.905,2.968,2.968,0,0,0-1.075-.2,1.472,1.472,0,0,0-.795.618c-.779,1.14-1.009,1.209-2.186.54.194-.275.61-.651.538-.811a1.4,1.4,0,0,0-.854-.683,3.3,3.3,0,0,0-1.468-.02c-.82.181-1.2-.084-1.1-.9.221-1.731.481-3.458.736-5.185.172-1.165.286-2.346.567-3.485a4.48,4.48,0,0,0-.687-3c-.087-.2-.457-.324-.72-.385a7.593,7.593,0,0,1-1.612-.437l2.829-.686c-1.048-1.4-6.464-1.675-8.6-.394l2.351.71-4.607,2.081c-.414-.728-.414-.728,1.571-2.8a2.539,2.539,0,0,0-2.34,1.319,18.381,18.381,0,0,0-.744,2.527c.8.008,1.694-.523,1.642.718,0,.087.454.263.7.279.635.04,1.276.013,1.949.013,0,.007-.131-.205-.074-.329a3.848,3.848,0,0,1,.516-.689c.237.2.476.405.711.611.3.26.591.523.886.784l.294-.62c.883-.027.922-.075.65-1.426l.723.968c.624-1.079,1.217.024,1.861.044-.391-1.751-1.6-2.015-5.573-1.231a2.89,2.89,0,0,1,3.937-1.019,26.139,26.139,0,0,1,3.3,2.17,1.69,1.69,0,0,1,.517,1.291,19.437,19.437,0,0,1-1.553,7.274,7.138,7.138,0,0,0-.446,1.2c-.368,1.259-.051,1.827,1.172,2.34a4.473,4.473,0,0,1,.916.7c-.3.351-.539.86-.922,1.025a7.064,7.064,0,0,0-3.117,2.332,3.418,3.418,0,0,1-1.846,1.132c-1.443.361-2.576.87-2.533,2.616a.884.884,0,0,1-.188.485c-.688.958-1.388,1.906-2.172,2.976a3.231,3.231,0,0,1-1.4-2.722,30.048,30.048,0,0,0-1.277-8.545,28.684,28.684,0,0,1-.924-11.131c.156-1.049.468-2.075.56-3.2l-.514.595a6.906,6.906,0,0,1,1.151-5.375v2.308l.312.05a7.56,7.56,0,0,0,.484-1.655c.166-2.778.336-5.545,1.777-8.078-2.187,1.143-2.8,3.7-4.719,5.05,1.013-1.71,1.1-3.9,2.845-5.227,1.618-1.224,3.2-2.494,4.8-3.744l-.116-.237-5.884,2.175,3.062-3.625-.252-.254-2.842,2.269-.2-.155a8.191,8.191,0,0,1,.822-1.2c1.144-1.175,2.348-2.292,3.486-3.472a4.531,4.531,0,0,0,.645-1.15c.093-.186.083-.448.213-.59,2.145-2.344,4.632-3.965,8.282-3.742-.416.21-.582.3-.752.378-.188.089-.379.17-.4.179a7.3,7.3,0,0,1,1.755,1.319,1.822,1.822,0,0,1,.114,2.379,11.2,11.2,0,0,0-1.5,2.014l2-.528-4.724,4.291a19.176,19.176,0,0,0,2.422-1.231,26.917,26.917,0,0,0,3.065-2.5c.607-.58.989-.559,1.605-.043.849.712,1.8,1.3,2.706,1.947l.184-.23-2.051-2.5,1.7-.235c-.468-.418-.846-.763-1.23-1.1-1.1-.966-1.1-1.113.008-2.009.136-.111.26-.237.381-.347-.5-1.182-.373-1.465.876-1.516a11.694,11.694,0,0,1,2.972.222,2.024,2.024,0,0,1,1.343,1.027c.43,1.342,1.5,1.57,2.75,2l-.555-1.533c.168.047.26.044.286.084,1.51,2.373,3.85,3.759,6.124,5.248a5.455,5.455,0,0,1,1.382,1.687c.826,1.292,1.536,2.66,2.388,3.934a7.43,7.43,0,0,1,1.26,5.491,11.661,11.661,0,0,1-.366,2.135c-.323-.841-.694-1.666-.958-2.524-1.482-4.824-4.765-7.606-9.619-8.768a42.287,42.287,0,0,1-4.658-1.678c.111.742.592,1.342,1.759,1.853.911.4,1.933.57,2.8,1.034a16.3,16.3,0,0,1,3.642,2.338c2.527,2.405,4.488,5.178,4.587,8.887a8.481,8.481,0,0,0,.409,1.73l-.231.19-2.157-2.019-.287.067a27.671,27.671,0,0,0,.657,5.592,14.362,14.362,0,0,1,.391,8.4,23.779,23.779,0,0,0-.319,3.387,4.373,4.373,0,0,1-.429,2.032,3.908,3.908,0,0,0-.6,3.126l.3.267,4.562-4.5C953.871,388.756,953.756,390.536,952.539,392.081Z" transform="translate(-884.871 -345.867)"/>
      <path id="Path_719" data-name="Path 719" d="M986.26,399.837l-.981-1.437-.642,1.131-.1-.146-1.506,1.108.263-1.684c-.662.089-1.456.189-1.781-.9a8.3,8.3,0,0,1,4.869-1.531l-1.617,1.172c2.022-.2,3.969-.333,5.739,1.079l.184-.533-1.864-1.412.1-.192,2.835,1.613.1.269c-1.316.284-.324.864-.43,1.477a7.353,7.353,0,0,1-1.088-.579c-1.085-.838-1.251-.835-2.262.344a8.732,8.732,0,0,0,.037-.894,1.837,1.837,0,0,0-.149-.645c-.027-.058-.37-.049-.375-.025a2.584,2.584,0,0,0-.068.653,1.225,1.225,0,0,0,.1.346Z" transform="translate(-930.902 -369.927)"/>
      <path id="Path_720" data-name="Path 720" d="M992.409,393.683c-.116.01-.236.059-.319.024-2.315-.99-4.6-.563-6.9.1a2.122,2.122,0,0,1-2.583-.9C984.561,391.5,990.917,392.027,992.409,393.683Z" transform="translate(-931.424 -367.887)"/>
      <path id="Path_721" data-name="Path 721" d="M1001.033,362.5a17.264,17.264,0,0,0-7.333-3.309c-1.638-.42-2.677-1.353-4.013-3.65a5.152,5.152,0,0,1,.758.569,11.914,11.914,0,0,0,5.846,3.349A8.34,8.34,0,0,1,1001.033,362.5Z" transform="translate(-934.795 -350.477)"/>
      <path id="Path_722" data-name="Path 722" d="M968.951,444.4l1.507-.943-.884-.72c.977-.08,1.7-.16,2.422-.191.531-.022,1.067.054,1.6.028,1.943-.1,2.425.183,3.477,2.309a8.133,8.133,0,0,0-8.026-.1Z" transform="translate(-924.918 -391.913)"/>
    </g>
    <g id="Group_3061" data-name="Group 3061" transform="translate(759 418.664)">
      <path id="Path_723" data-name="Path 723" d="M1042.13,572.309a69.188,69.188,0,0,1,2.327,7.344c-3.4.788-6.806,1.513-10.234,2.133-.475.087-.945.169-1.42.25-.475-1.22-.988-2.421-1.5-3.434a42.457,42.457,0,0,0-2.071-3.891c2.046-.262,4.091-.55,6.124-.876A61.992,61.992,0,0,0,1042.13,572.309Z" transform="translate(-887.712 -526.519)" fill="url(#linear-gradient)"/>
      <path id="Path_724" data-name="Path 724" d="M863.808,504.627a3.121,3.121,0,0,1,1.814-2.214,60.921,60.921,0,0,1,10.1-2.652c8.339-1.164,16.721-1.977,25.091-2.934,5.373-.619,10.766-1.132,16.12-1.92,4.485-.657,8.964-1.5,13.387-2.527a26.18,26.18,0,0,0,6.105-2.477c1.727-.894,2.7-2.477,2.421-5.03,1.07,2.321.638,3.91-1.22,5.411-3.059,2.465-6.762,3.528-10.478,4.291q-8.932,1.84-17.972,3.128c-6.937.995-13.931,1.583-20.868,2.558-3.7.519-7.344,1.464-11,2.252a4.322,4.322,0,0,0-1.307.669c-1.376.857-1.445,1.939.038,2.565a24.384,24.384,0,0,0,6.449,2.07c11.234,1.289,22.488,2.4,33.741,3.5,11.078,1.089,22.182,1.939,33.235,3.216,7.494.863,14.981,2.033,22.369,3.553,4.516.925,9.114,2.208,12.58,5.692,2.133,2.146,2.1,4.729-.1,6.963a16.37,16.37,0,0,1-3.1,2.458,60.217,60.217,0,0,0-2.365-9.026l-.013-.038-.013-.037c-.794-2.1-2.983-3.347-5.855-3.347h-.375a13.021,13.021,0,0,0-5.63,1.5,10.038,10.038,0,0,0-1.952,1.351c-2.909-.845-5.836-1.62-8.795-2.239-3.779-.794-7.638-1.22-11.478-1.733-5.73-.75-11.466-1.439-17.2-2.152-10.434-1.289-20.875-2.483-31.29-3.9-7.363-1-14.713-2.146-22.013-3.54a45.28,45.28,0,0,1-8.814-3.09A3.074,3.074,0,0,1,863.808,504.627Z" transform="translate(-808.919 -484.873)" fill="url(#linear-gradient-2)"/>
      <path id="Path_725" data-name="Path 725" d="M979.492,656.017c-2.2,4.679-7.869,5.842-12.329,4.485-7.087-2.152-14.237-4.141-21.381-6.1q-8.079-2.2-16.233-4.122c-4.535-1.064-9.114-1.952-13.693-2.853-8.545-1.7-17.084-3.4-25.641-5.011-5.311-1-10.659-1.808-15.97-2.783-6.818-1.251-13.624-2.559-20.43-3.878-6.443-1.251-12.949-2.277-19.3-3.9-8.72-2.22-17.4-4.667-25.96-7.475-5.655-1.858-11.022-4.585-14.957-9.377-2.3-2.214-2.277-5.079-1.651-7.419v-.006c.106-.382.225-.745.35-1.1v-.006a16.545,16.545,0,0,1,1.013-2.215c.25-.45.45-.769.544-.913.038-.056.056-.087.056-.087a21.5,21.5,0,0,1,8.608-6.443,95.535,95.535,0,0,1,23.84-6.781c8.851-1.445,17.7-2.965,26.579-4.179,7.425-1.013,14.907-1.62,22.357-2.458q11.926-1.333,23.833-2.74a8.557,8.557,0,0,1,5.329,6l.006.019.006.025-.05,1.752c-3.5.525-7.006,1.032-10.509,1.551-6.018.894-12.061,1.583-18.072,2.477-6.324.932-12.623,1.971-18.922,3.022-6.969,1.163-13.962,2.2-20.875,3.641-7.732,1.607-15.557,3.034-22.788,6.461-1.364.651-3.016,1.264-3.1,3.071s1.57,2.434,2.9,2.953a94.507,94.507,0,0,0,10.891,3.885c6.356,1.651,12.786,3.034,19.229,4.285,5.842,1.132,11.748,1.964,17.628,2.883q10.463,1.624,20.943,3.165c3.2.469,6.437.745,9.633,1.233,4.892.75,9.771,1.62,14.65,2.427,4.06.669,8.132,1.27,12.179,2,7.125,1.276,14.244,2.552,21.35,3.947,6.081,1.188,12.167,2.371,18.179,3.866s11.992,3.128,17.828,5.154C979.7,645.908,981.907,650.875,979.492,656.017Z" transform="translate(-774.518 -530.496)" fill="url(#linear-gradient-3)"/>
      <g id="Group_3059" data-name="Group 3059" transform="translate(139.757 51.411)">
        <path id="Path_726" data-name="Path 726" d="M1027.356,586q-.244-.526-.5-1.036Q1027.112,585.474,1027.356,586Z" transform="translate(-1026.338 -583.958)" fill="#fff"/>
        <path id="Path_727" data-name="Path 727" d="M1026.206,583.7c-.113-.221-.225-.443-.341-.659C1025.981,583.26,1026.093,583.481,1026.206,583.7Z" transform="translate(-1025.865 -583.043)" fill="#fff"/>
      </g>
      <g id="Group_3060" data-name="Group 3060" transform="translate(0 15.249)">
        <path id="Path_728" data-name="Path 728" d="M772.869,522.822a4.733,4.733,0,0,0,0,9.464,4.732,4.732,0,0,0,0-9.464Zm11.479,0a4.732,4.732,0,1,0,4.729,4.735A4.744,4.744,0,0,0,784.348,522.822Z" transform="translate(-763.389 -518.197)" fill="#ff8b17"/>
        <path id="Path_729" data-name="Path 729" d="M905.993,562.015c-.964-.363-1.927-.682-2.846-.963a67.829,67.829,0,0,0-3.372-8.745c-5.217-11.235-14.244-17.534-23.227-17.453a20.307,20.307,0,0,0-11.116,3.69c-2.483,1.445,1.082,10.109,6.062,10.109,5.811-5.736,17.728-4.41,20.455,5.536,0,0,1.088,3.772,1.564,5.38-8.8-.363-17.565,1.72-27.061,2.3l-.319.044c-1.639.219-3.578.488-5.549.776-6.218.92-12.48,1.958-18.885,3.021-1.676.282-3.353.55-5.036.826-5.186.845-10.552,1.714-15.757,2.8-.688.138-1.376.282-2.058.425l-2.546.526a21.055,21.055,0,0,0,4.454.469h42.068c16.208,0,23.952-5.655,39.879,1.445C907.519,570.923,908.639,563.054,905.993,562.015Zm-94.144-9.708v-.325c.481-9.064.4-31.09-1.364-36.382-.357-1.007-1.883-1.445-3.691-1.364-3.009.075-6.856,1.639-7.663,4.654,0,0,4.1,28.362,3.409,34.58a11.214,11.214,0,0,1-1.557,5q4.513-1.116,9.552-1.939l1.745-.281a12.87,12.87,0,0,1-.35-1.983A11.025,11.025,0,0,1,811.849,552.307Zm-22.388,6.218a12.717,12.717,0,0,1-.838-2.046,11.027,11.027,0,0,0,.238-1.164c.725-4.979.926-15.125-1.12-21.181-.325-.925-1.646-1.445-3.253-1.488h-.237c-3.053.043-7.1,1.607-7.944,4.654a9.92,9.92,0,0,1,.482,1.245c-5.937.8-12.2,4.135-15.564,9.746-7.325,12.292,4.854,24.915,16.1,21.65a23.767,23.767,0,0,1,8.9-6.474c1.764-.794,3.6-1.526,5.5-2.208A8.027,8.027,0,0,1,789.461,558.525Zm-11.992,2.446c-3.172,1.808-6.981.163-8.589-2.208-3.446-5.292,4.379-11.391,11.116-11.836C780.916,551.625,780.8,559.007,777.469,560.971Z" transform="translate(-759 -514.103)" fill="#ff8b17"/>
        <path id="Path_730" data-name="Path 730" d="M1088.241,555.152a17.73,17.73,0,0,1-17.89,15.607,4.2,4.2,0,0,1-1.564-.3,12.1,12.1,0,0,1-5.254-2.709,23.844,23.844,0,0,1-12,13.762c-.319.157-.6.275-.882.4-2.365,1.12-7.3-5.3-5.055-9.145a15.936,15.936,0,0,0,5.3-1.771c7.5-4.128,6.456-15.4,1.12-28.925.725-2.683,4.253-4.129,6.981-4.21h.281c1.483,0,2.609.482,2.927,1.326a55.635,55.635,0,0,1,3.09,17.046,8.012,8.012,0,0,0,.882,2.127c1,1.889,2.527,3.534,4.335,3.534a4.14,4.14,0,0,1,.744.069,9.826,9.826,0,0,0,1.539-.269c4.3-1.007,5.942-4.1,6.38-8.307.645-6.218-3.446-34.461-3.446-34.461,1.282-4.816,10.465-5.98,11.391-3.253C1089.167,521.773,1088.967,550.179,1088.241,555.152Z" transform="translate(-895.235 -514.105)" fill="#ff8b17"/>
        <path id="Path_731" data-name="Path 731" d="M1147.561,515.444c-.363-1-1.845-1.527-3.691-1.445-3.009.082-6.862,1.727-7.663,4.692,0,0,4.009,42.568,3.372,48.786-.563,2.164,3.891,4.81,9.108,1.8C1149.407,564.3,1149.607,521.543,1147.561,515.444Z" transform="translate(-938.665 -513.99)" fill="#ff8b17"/>
      </g>
    </g>
  </g>
</svg>
